<svg width="66" height="14" viewBox="0 0 66 14" fill="none" xmlns="http://www.w3.org/2000/svg">
<path d="M0.386 13V1.264H3.032V5.782H7.082V1.264H9.746V13H7.082V8.104H3.032V13H0.386ZM16.1329 13.216C15.5689 13.216 15.0229 13.114 14.4949 12.91C13.9669 12.694 13.4989 12.388 13.0909 11.992C12.6949 11.596 12.3769 11.11 12.1369 10.534C11.8969 9.946 11.7769 9.28 11.7769 8.536C11.7769 7.792 11.8969 7.132 12.1369 6.556C12.3769 5.968 12.6949 5.476 13.0909 5.08C13.4989 4.684 13.9669 4.384 14.4949 4.18C15.0229 3.964 15.5689 3.856 16.1329 3.856C16.6969 3.856 17.2369 3.964 17.7529 4.18C18.2809 4.384 18.7429 4.684 19.1389 5.08C19.5469 5.476 19.8709 5.968 20.1109 6.556C20.3509 7.132 20.4709 7.792 20.4709 8.536C20.4709 9.28 20.3509 9.946 20.1109 10.534C19.8709 11.11 19.5469 11.596 19.1389 11.992C18.7429 12.388 18.2809 12.694 17.7529 12.91C17.2369 13.114 16.6969 13.216 16.1329 13.216ZM16.1329 11.074C16.6729 11.074 17.0809 10.846 17.3569 10.39C17.6329 9.934 17.7709 9.316 17.7709 8.536C17.7709 7.756 17.6329 7.138 17.3569 6.682C17.0809 6.226 16.6729 5.998 16.1329 5.998C15.5809 5.998 15.1669 6.226 14.8909 6.682C14.6269 7.138 14.4949 7.756 14.4949 8.536C14.4949 9.316 14.6269 9.934 14.8909 10.39C15.1669 10.846 15.5809 11.074 16.1329 11.074ZM24.7133 13.216C24.2573 13.216 23.8733 13.144 23.5613 13C23.2493 12.856 22.9973 12.658 22.8053 12.406C22.6253 12.142 22.4933 11.83 22.4093 11.47C22.3253 11.098 22.2833 10.684 22.2833 10.228V0.381999H24.9293V10.336C24.9293 10.612 24.9773 10.804 25.0733 10.912C25.1813 11.02 25.2893 11.074 25.3973 11.074C25.4573 11.074 25.5053 11.074 25.5413 11.074C25.5893 11.074 25.6493 11.062 25.7213 11.038L26.0453 13C25.9013 13.06 25.7153 13.108 25.4873 13.144C25.2713 13.192 25.0133 13.216 24.7133 13.216ZM29.6837 13.216C29.2757 13.216 28.9037 13.144 28.5677 13C28.2437 12.868 27.9677 12.682 27.7397 12.442C27.5117 12.19 27.3317 11.902 27.1997 11.578C27.0797 11.254 27.0197 10.9 27.0197 10.516C27.0197 9.58 27.4157 8.848 28.2077 8.32C28.9997 7.792 30.2777 7.438 32.0417 7.258C32.0177 6.862 31.8977 6.55 31.6817 6.322C31.4777 6.082 31.1297 5.962 30.6377 5.962C30.2537 5.962 29.8697 6.034 29.4857 6.178C29.1137 6.322 28.7117 6.52 28.2797 6.772L27.3257 5.026C27.9017 4.678 28.5017 4.396 29.1257 4.18C29.7617 3.964 30.4337 3.856 31.1417 3.856C32.2937 3.856 33.1697 4.186 33.7697 4.846C34.3817 5.494 34.6877 6.508 34.6877 7.888V13H32.5277L32.3477 12.082H32.2757C31.8917 12.418 31.4897 12.694 31.0697 12.91C30.6497 13.114 30.1877 13.216 29.6837 13.216ZM30.5837 11.164C30.8837 11.164 31.1417 11.098 31.3577 10.966C31.5737 10.834 31.8017 10.648 32.0417 10.408V8.842C31.1057 8.974 30.4577 9.166 30.0977 9.418C29.7377 9.67 29.5577 9.97 29.5577 10.318C29.5577 10.606 29.6477 10.822 29.8277 10.966C30.0197 11.098 30.2717 11.164 30.5837 11.164ZM40.1119 13.216C39.5599 13.216 39.0559 13.108 38.5999 12.892C38.1559 12.676 37.7719 12.37 37.4479 11.974C37.1359 11.566 36.8899 11.074 36.7099 10.498C36.5419 9.922 36.4579 9.268 36.4579 8.536C36.4579 7.804 36.5599 7.15 36.7639 6.574C36.9799 5.998 37.2559 5.512 37.5919 5.116C37.9399 4.708 38.3359 4.396 38.7799 4.18C39.2359 3.964 39.6979 3.856 40.1659 3.856C40.6699 3.856 41.0839 3.94 41.4079 4.108C41.7319 4.276 42.0499 4.504 42.3619 4.792L42.2539 3.424V0.381999H44.8999V13H42.7399L42.5599 12.118H42.4879C42.1759 12.43 41.8099 12.694 41.3899 12.91C40.9699 13.114 40.5439 13.216 40.1119 13.216ZM40.7959 11.056C41.0839 11.056 41.3419 10.996 41.5699 10.876C41.8099 10.756 42.0379 10.546 42.2539 10.246V6.592C42.0139 6.376 41.7679 6.226 41.5159 6.142C41.2639 6.058 41.0179 6.016 40.7779 6.016C40.3579 6.016 39.9859 6.22 39.6619 6.628C39.3379 7.024 39.1759 7.648 39.1759 8.5C39.1759 9.388 39.3139 10.036 39.5899 10.444C39.8779 10.852 40.2799 11.056 40.7959 11.056ZM51.0782 13.216C50.5142 13.216 49.9682 13.114 49.4402 12.91C48.9122 12.694 48.4442 12.388 48.0362 11.992C47.6402 11.596 47.3222 11.11 47.0822 10.534C46.8422 9.946 46.7222 9.28 46.7222 8.536C46.7222 7.792 46.8422 7.132 47.0822 6.556C47.3222 5.968 47.6402 5.476 48.0362 5.08C48.4442 4.684 48.9122 4.384 49.4402 4.18C49.9682 3.964 50.5142 3.856 51.0782 3.856C51.6422 3.856 52.1822 3.964 52.6982 4.18C53.2262 4.384 53.6882 4.684 54.0842 5.08C54.4922 5.476 54.8162 5.968 55.0562 6.556C55.2962 7.132 55.4162 7.792 55.4162 8.536C55.4162 9.28 55.2962 9.946 55.0562 10.534C54.8162 11.11 54.4922 11.596 54.0842 11.992C53.6882 12.388 53.2262 12.694 52.6982 12.91C52.1822 13.114 51.6422 13.216 51.0782 13.216ZM51.0782 11.074C51.6182 11.074 52.0262 10.846 52.3022 10.39C52.5782 9.934 52.7162 9.316 52.7162 8.536C52.7162 7.756 52.5782 7.138 52.3022 6.682C52.0262 6.226 51.6182 5.998 51.0782 5.998C50.5262 5.998 50.1122 6.226 49.8362 6.682C49.5722 7.138 49.4402 7.756 49.4402 8.536C49.4402 9.316 49.5722 9.934 49.8362 10.39C50.1122 10.846 50.5262 11.074 51.0782 11.074ZM57.2286 13V0.381999H59.8026V7.618H59.8746L62.7006 4.072H65.5806L62.4486 7.744L65.8146 13H62.9526L60.9366 9.526L59.8026 10.804V13H57.2286Z" fill="#101C45"/>
</svg>
